<svg width="1383" height="527" viewBox="0 0 1383 527" fill="none" xmlns="http://www.w3.org/2000/svg">
<g opacity="0.5">
<g clip-path="url(#clip0)">
<path opacity="0.249" fill-rule="evenodd" clip-rule="evenodd" d="M934.342 162.507H966.774L963.574 199.665L950.558 203.683L937.54 199.665L934.342 162.507Z" fill="white"/>
<g opacity="0.249">
<path fill-rule="evenodd" clip-rule="evenodd" d="M963.469 198.889L950.878 202.687L938.328 198.895L935.421 163.411H966.378L963.469 198.888V198.889ZM933 161L936.259 200.771L950.878 205.188L965.538 200.765L968.8 161H933Z" fill="white"/>
<path fill-rule="evenodd" clip-rule="evenodd" d="M940.606 172.114H958.975L958.315 180.15H946.629L946.828 182.56L958.121 182.559L957.365 191.705L951.298 193.488L950.978 193.627L950.567 193.511L944.432 191.709L944.119 187.89H941.897L942.361 193.546L950.893 196.123L959.436 193.546L961.392 169.705H940.407L940.606 172.114Z" fill="white"/>
</g>
<path opacity="0.249" fill-rule="evenodd" clip-rule="evenodd" d="M1304.34 98.5065H1336.77L1333.57 135.665L1320.56 139.683L1307.54 135.665L1304.34 98.5065Z" fill="white"/>
<g opacity="0.249">
<path fill-rule="evenodd" clip-rule="evenodd" d="M1333.47 134.889L1320.88 138.687L1308.33 134.895L1305.42 99.4108H1336.38L1333.47 134.888V134.889ZM1303 97L1306.26 136.771L1320.88 141.188L1335.54 136.765L1338.8 97H1303Z" fill="white"/>
<path fill-rule="evenodd" clip-rule="evenodd" d="M1310.61 108.114H1328.97L1328.32 116.15H1316.63L1316.83 118.56L1328.12 118.559L1327.37 127.705L1321.3 129.488L1320.98 129.627L1320.57 129.511L1314.43 127.709L1314.12 123.89H1311.9L1312.36 129.546L1320.89 132.123L1329.44 129.546L1331.39 105.705H1310.41L1310.61 108.114Z" fill="white"/>
</g>
<path opacity="0.249" fill-rule="evenodd" clip-rule="evenodd" d="M1084.26 50.5445L1062.33 25.569L1069.33 13.0812H1099.19L1106.65 25.569L1084.26 50.5445Z" fill="white"/>
<g opacity="0.249">
<path opacity="0.249" d="M1103.49 24.696L1097.14 14.1021H1069.08L1063.14 24.6806L1083.11 47.3645L1103.49 24.6949V24.696ZM1082.11 50.6333L1060.4 25.9702C1060.18 25.7181 1060.04 25.3972 1060.01 25.0556C1059.97 24.714 1060.05 24.3701 1060.21 24.0753L1067.14 11.7437C1067.26 11.5249 1067.43 11.3432 1067.64 11.2164C1067.84 11.0896 1068.08 11.022 1068.31 11.0203H1097.88C1098.35 11.0203 1098.78 11.2782 1099.04 11.7067L1106.42 24.0383C1106.6 24.337 1106.68 24.6904 1106.65 25.0426C1106.62 25.3949 1106.48 25.7259 1106.25 25.9836L1084.08 50.6467C1083.95 50.7901 1083.8 50.9041 1083.63 50.9817C1083.46 51.0593 1083.27 51.0988 1083.09 51.0977C1082.9 51.0967 1082.72 51.0551 1082.55 50.9756C1082.38 50.896 1082.23 50.7802 1082.11 50.6354V50.6333Z" fill="white"/>
<path fill-rule="evenodd" clip-rule="evenodd" d="M1073.82 22.073L1082.54 11.4997C1082.67 11.3407 1082.83 11.2135 1083 11.1273C1083.18 11.041 1083.38 10.9976 1083.58 11.0001C1083.77 11.0027 1083.97 11.0511 1084.14 11.142C1084.32 11.2329 1084.48 11.3641 1084.6 11.5264L1092.79 21.9415L1096.85 12.1533C1097.17 11.3805 1097.99 11.0424 1098.69 11.399C1099.39 11.7556 1099.69 12.6712 1099.37 13.444L1095.27 23.3318H1105.73V26.4147H1093.99L1084.67 48.9034C1084.83 49.6145 1084.52 50.3729 1083.9 50.6853C1083.61 50.826 1083.29 50.8579 1082.99 50.7755C1082.69 50.6931 1082.42 50.5015 1082.24 50.2331C1082.07 50.0873 1081.94 49.9052 1081.85 49.6993C1081.76 49.4934 1081.71 49.2688 1081.71 49.0411L1072.54 26.4147H1060.92V23.3318H1071.29L1067.28 13.4317C1066.97 12.6558 1067.28 11.7433 1067.98 11.3928C1068.67 11.0434 1069.5 11.3887 1069.81 12.1656L1073.82 22.073ZM1090.21 23.3318L1083.53 14.8518L1076.55 23.3318H1090.21ZM1075.58 26.4147L1083.17 45.1515L1090.94 26.4147H1075.58Z" fill="white"/>
</g>
<path opacity="0.249" fill-rule="evenodd" clip-rule="evenodd" d="M415.754 506.912L413.007 481.221L430.864 474.028L448.264 481.735L445.975 506.912L431.322 516.674L415.754 506.912Z" fill="white"/>
<g opacity="0.249">
<path fill-rule="evenodd" clip-rule="evenodd" d="M445.119 506.714L431.027 515.398L416.935 506.714L414.396 482.37L431.027 475.625L447.658 482.37L445.119 506.714ZM431.027 473L412 480.718L414.873 508.261L431.028 518.216L447.181 508.261L450.053 480.718L431.028 473H431.027Z" fill="white"/>
<path fill-rule="evenodd" clip-rule="evenodd" d="M426.837 496.892L431.316 484.811L435.797 496.892H426.838H426.837ZM420.831 505.604H423.607L425.908 499.399H436.726L439.026 505.604H441.802L431.316 479.651L420.831 505.604Z" fill="white"/>
</g>
<path opacity="0.249" fill-rule="evenodd" clip-rule="evenodd" d="M969.183 460H1005.76V500.591H969.183V460Z" fill="white"/>
<g opacity="0.249">
<path opacity="0.249" fill-rule="evenodd" clip-rule="evenodd" d="M971.194 498.639H1003.39V462.466H971.194V498.639ZM969 501.105H1005.59V460H969V501.105Z" fill="white"/>
<path fill-rule="evenodd" clip-rule="evenodd" d="M997.512 492.728C997.246 492.95 996.944 493.119 996.622 493.227C995.295 493.659 993.416 493.484 992.126 491.696C992.035 491.571 991.948 491.443 991.862 491.313L990.097 492.462C990.514 493.206 991.078 493.842 991.751 494.327C992.582 494.926 993.522 495.278 994.626 495.401C995.792 495.532 996.819 495.422 997.766 495.066C998.841 494.661 999.599 493.999 1000.08 493.042C1000.45 492.315 1000.61 491.488 1000.57 490.44C1000.52 489.012 1000.03 487.901 999.084 487.044C998.373 486.401 997.559 485.935 996.555 485.434C996.382 485.348 996.207 485.261 996.033 485.177C995.566 484.953 995.104 484.716 994.648 484.467C994.29 484.263 993.959 484.006 993.667 483.704C993.156 483.177 992.927 482.266 993.098 481.435C993.174 481.038 993.349 480.671 993.605 480.372C993.862 480.073 994.189 479.855 994.553 479.74C995.038 479.58 995.563 479.575 996.113 479.727C996.734 479.898 997.255 480.316 997.702 481.004L999.341 479.822C998.831 478.99 998.233 478.42 997.523 478.093C996.414 477.581 995.204 477.493 993.929 477.832C992.788 478.136 991.964 478.795 991.41 479.851C991.018 480.596 990.857 481.461 990.915 482.496C990.987 483.76 991.399 484.764 992.175 485.564C992.872 486.286 993.735 486.767 994.486 487.142L994.918 487.357C995.536 487.664 996.175 487.981 996.797 488.321C997.132 488.504 997.456 488.761 997.735 489.064C998.189 489.56 998.427 490.247 998.384 490.951C998.365 491.297 998.277 491.634 998.127 491.94C997.976 492.247 997.767 492.516 997.512 492.729V492.728ZM979.978 494.938C981.321 495.586 982.746 495.644 984.211 495.111C985.338 494.702 986.081 493.861 986.484 492.542C986.686 491.88 986.777 491.15 986.777 490.172V477.876H984.58V480.013C984.58 483.384 984.58 486.754 984.578 490.125C984.578 490.518 984.553 490.893 984.506 491.24C984.461 491.572 984.325 492.584 983.477 493.053C982.522 493.579 981.563 493.536 980.702 492.925C980.274 492.623 980 492.202 979.767 491.793L979.701 491.677L977.942 492.874C978.459 493.852 979.128 494.529 979.979 494.939" fill="white"/>
</g>
<path opacity="0.249" fill-rule="evenodd" clip-rule="evenodd" d="M402.902 45.7907C396.578 47.9921 391.607 48.0207 390.203 45.3982C388.817 42.8109 391.245 38.2657 396.053 33.5281C391.269 28.8854 388.897 24.3452 390.368 21.6857C391.863 18.9844 396.948 18.8928 403.333 20.9866C404.845 13.9786 407.462 9.27432 410.378 9.23085C413.224 9.18739 415.666 13.5925 417.013 20.2792C423.578 17.8986 428.779 17.7978 430.22 20.4888C431.679 23.2122 428.915 28.1025 423.598 33.1032C428.683 37.8947 431.251 42.6359 429.733 45.3783C428.24 48.0784 423.154 48.1714 416.77 46.0776C415.259 53.0865 412.641 57.7886 409.725 57.8334C406.74 57.8787 404.199 53.0319 402.902 45.7898L402.902 45.7907Z" fill="white"/>
<path opacity="0.249" d="M409.712 56.7269C413.458 56.6666 416.628 46.1941 416.793 33.336C416.958 20.4778 414.055 10.103 410.309 10.1633C406.564 10.2235 403.393 20.696 403.228 33.5542C403.063 46.4124 405.966 56.7871 409.712 56.7269Z" stroke="white" stroke-width="2"/>
<path opacity="0.249" d="M411.52 36.3842C413.305 35.2733 413.917 32.8137 412.887 30.8906C411.857 28.9675 409.576 28.3091 407.791 29.42C406.007 30.531 405.395 32.9906 406.424 34.9137C407.454 36.8368 409.736 37.4952 411.52 36.3842Z" fill="white"/>
<g opacity="0.249">
<path d="M428.854 44.9784C426.837 48.6872 416.766 46.5301 406.359 40.1603C395.952 33.7905 389.15 25.6202 391.167 21.9113C393.184 18.2024 403.256 20.3595 413.663 26.7293C424.07 33.0991 430.871 41.2695 428.854 44.9784Z" stroke="white" stroke-width="2"/>
<path d="M429.229 21.0036C431.123 24.5363 424.122 32.7067 413.593 39.2527C403.063 45.7987 392.991 48.2416 391.097 44.7089C389.203 41.1763 396.203 33.0059 406.733 26.4598C417.263 19.9138 427.335 17.471 429.229 21.0036Z" stroke="white" stroke-width="2"/>
</g>
<path opacity="0.249" fill-rule="evenodd" clip-rule="evenodd" d="M715.902 509.791C709.578 511.992 704.607 512.021 703.203 509.398C701.817 506.811 704.245 502.266 709.053 497.528C704.269 492.885 701.897 488.345 703.368 485.686C704.863 482.984 709.948 482.893 716.333 484.987C717.845 477.979 720.462 473.274 723.378 473.231C726.224 473.187 728.666 477.593 730.013 484.279C736.578 481.899 741.779 481.798 743.22 484.489C744.679 487.212 741.915 492.102 736.598 497.103C741.683 501.895 744.251 506.636 742.733 509.378C741.24 512.078 736.154 512.171 729.77 510.078C728.259 517.086 725.641 521.789 722.725 521.833C719.74 521.879 717.199 517.032 715.902 509.79L715.902 509.791Z" fill="white"/>
<path opacity="0.249" d="M722.712 520.727C726.458 520.667 729.628 510.194 729.793 497.336C729.958 484.478 727.055 474.103 723.309 474.163C719.564 474.224 716.393 484.696 716.228 497.554C716.063 510.412 718.966 520.787 722.712 520.727Z" stroke="white" stroke-width="2"/>
<path opacity="0.249" d="M724.52 500.384C726.305 499.273 726.917 496.814 725.887 494.891C724.857 492.967 722.576 492.309 720.791 493.42C719.007 494.531 718.395 496.991 719.424 498.914C720.454 500.837 722.736 501.495 724.52 500.384Z" fill="white"/>
<g opacity="0.249">
<path d="M741.854 508.978C739.837 512.687 729.765 510.53 719.358 504.16C708.951 497.791 702.15 489.62 704.167 485.911C706.184 482.202 716.256 484.359 726.663 490.729C737.07 497.099 743.871 505.269 741.854 508.978Z" stroke="white" stroke-width="2"/>
<path d="M742.229 485.004C744.123 488.536 737.122 496.707 726.593 503.253C716.063 509.799 705.991 512.242 704.097 508.709C702.203 505.176 709.203 497.006 719.733 490.46C730.263 483.914 740.335 481.471 742.229 485.004Z" stroke="white" stroke-width="2"/>
</g>
<path opacity="0.249" fill-rule="evenodd" clip-rule="evenodd" d="M1237.57 321.508L1252.95 317.398L1267.89 321.508V354.392L1252.95 358.503L1237.57 354.392V321.508Z" fill="white"/>
<g opacity="0.249">
<path opacity="0.249" fill-rule="evenodd" clip-rule="evenodd" d="M1246.86 317.398L1237.82 320.899V332.745L1246.86 336.247H1259.06L1268.1 332.745V320.899L1259.06 317.398H1246.86ZM1247.22 323.696L1242.28 321.783L1247.22 319.868L1258.7 319.869L1263.64 321.783L1258.7 323.697L1247.22 323.696ZM1259.06 326.168L1265.92 323.509V330.978L1265.91 330.984L1258.7 333.776L1247.22 333.774L1239.99 330.978V323.509L1240.02 323.519L1246.86 326.168H1259.06H1259.06Z" fill="white"/>
<path opacity="0.249" fill-rule="evenodd" clip-rule="evenodd" d="M1265.93 342.316L1265.91 342.322L1258.69 345.114L1247.22 345.113L1239.99 342.316V336.16L1237.82 335.318V344.083L1246.86 347.584H1259.06L1268.1 344.084V335.318L1265.92 336.16L1265.93 342.316Z" fill="white"/>
<path opacity="0.249" fill-rule="evenodd" clip-rule="evenodd" d="M1265.93 353.234L1265.91 353.239L1258.69 356.032L1247.22 356.031L1239.99 353.234V347.078L1237.82 346.235V355.002L1246.86 358.503H1259.06L1268.1 355.002V346.236L1265.92 347.078L1265.93 353.234Z" fill="white"/>
</g>
<path opacity="0.249" fill-rule="evenodd" clip-rule="evenodd" d="M1316.55 507.137H1311.01L1307.36 502.618V492.073L1311.01 487.554H1317V480.506L1321.14 476.005H1330.8L1334.92 480.506V487.554H1340.89L1345.03 491.571V502.115L1341.35 506.635H1335.38V513.665L1330.8 518.184H1321.14L1317 513.665V507.137" fill="white"/>
<g opacity="0.249">
<path opacity="0.249" fill-rule="evenodd" clip-rule="evenodd" d="M1344.06 502.135L1340.92 505.571H1326.17V508.071H1333.91V513.25L1330.77 516.687H1321.57L1318.43 513.25V503.169L1322.84 498.345H1330.45L1336.19 491.994V488.618H1340.92L1344.06 492.054V502.135ZM1311.42 505.571L1308.28 502.135V492.054L1311.42 488.618H1326.17V486.117H1318.43V480.938L1321.57 477.501H1330.77L1333.91 480.938V490.965L1329.5 495.843H1321.89L1316.15 502.135V505.571H1311.42ZM1341.86 486.117H1336.19V479.902L1331.72 475H1320.62L1316.15 479.902V486.117H1310.48L1306 491.019V503.17L1310.47 508.072H1316.15V514.286L1320.62 519.188H1331.72L1336.19 514.286V508.071H1341.87L1346.34 503.169V491.02L1341.87 486.118L1341.86 486.117Z" fill="white"/>
<path fill-rule="evenodd" clip-rule="evenodd" d="M1321.22 483.198H1323.51V480.42H1321.22V483.198ZM1328.83 513.769H1331.12V510.99H1328.83V513.769Z" fill="white"/>
</g>
<path opacity="0.249" fill-rule="evenodd" clip-rule="evenodd" d="M244.449 107.371H277.754L275.439 145.533L261.102 149.047L247.688 145.533L244.449 107.371Z" fill="white"/>
<g opacity="0.249">
<path fill-rule="evenodd" clip-rule="evenodd" d="M273.995 144.757L261.404 148.555L248.854 144.763L245.947 109.279H276.904L273.995 144.756V144.757ZM243.526 106.868L246.785 146.639L261.404 151.056L276.064 146.633L279.326 106.868H243.526Z" fill="white"/>
<path fill-rule="evenodd" clip-rule="evenodd" d="M252.435 128.513H268.17L267.468 137.042L261.454 138.835L261.112 138.737L255.355 137.046L255.057 133.422H252.838L253.285 138.884L261.406 141.338L269.537 138.884L270.585 126.105H254.457L253.846 118.641H271.197L271.396 116.233H251.428L252.435 128.513Z" fill="white"/>
</g>
<path opacity="0.249" fill-rule="evenodd" clip-rule="evenodd" d="M62.5203 28.6337H102.157V64.797H62.5203V28.6337Z" fill="white"/>
<g opacity="0.249">
<path fill-rule="evenodd" clip-rule="evenodd" d="M64.797 33.9815H99.9773V31.5151H64.797V33.9815ZM64.797 63.5772H99.9773V36.4478H64.797V63.5772ZM62.6431 29.0488V66.0435H102.131V29.0488H62.6431Z" fill="white"/>
<path fill-rule="evenodd" clip-rule="evenodd" d="M68.3858 45.902H70.5397V40.9694H68.3858V45.902Z" fill="white"/>
</g>
<path opacity="0.249" fill-rule="evenodd" clip-rule="evenodd" d="M48.5457 458.464H43.0127L39.3568 453.944V443.4L43.0127 438.88H49.0043V431.833L53.1391 427.332H62.7991L66.9233 431.833V438.88H72.8947L77.0295 442.897V453.442L73.3553 457.961H67.383V464.991L62.7991 469.511H53.1391L49.0043 464.991V458.464" fill="white"/>
<g opacity="0.249">
<path opacity="0.249" fill-rule="evenodd" clip-rule="evenodd" d="M76.0573 453.461L72.9207 456.897H58.1701V459.398H65.9088V464.577L62.7722 468.013H53.5699L50.4332 464.577V454.496L54.8372 449.671H62.4529L68.1916 443.32V439.945H72.9207L76.0573 443.38V453.461ZM43.4214 456.897L40.2847 453.461V443.38L43.4214 439.945H58.171V437.443H50.4332V432.264L53.5699 428.828H62.7722L65.9088 432.264V442.292L61.5 447.17H53.892L48.1495 453.461V456.897H43.4214ZM73.8649 437.443H68.1916V431.228L63.7174 426.327H52.6237L48.1495 431.228V437.443H42.4761L38 442.345V454.497L42.4742 459.399H48.1475V465.613L52.6246 470.515H63.7184L68.1926 465.613V459.398H73.8659L78.3411 454.496V442.346L73.8669 437.444L73.8649 437.443Z" fill="white"/>
<path fill-rule="evenodd" clip-rule="evenodd" d="M53.2237 434.525H55.5065V431.746H53.2237V434.525ZM60.8346 465.096H63.1183V462.316H60.8346V465.096Z" fill="white"/>
</g>
<g opacity="0.249">
<g opacity="0.249">
<path opacity="0.249" d="M200.241 352.674L193.895 342.08H165.838L159.893 352.658L179.862 375.342L200.241 352.673V352.674ZM178.862 378.611L157.15 353.948C156.932 353.696 156.796 353.375 156.763 353.033C156.729 352.692 156.801 352.348 156.965 352.053L163.895 339.721C164.015 339.503 164.187 339.321 164.393 339.194C164.599 339.067 164.832 339 165.07 338.998H194.637C195.101 338.998 195.533 339.256 195.791 339.684L203.178 352.016C203.355 352.315 203.435 352.668 203.403 353.02C203.372 353.373 203.232 353.704 203.005 353.961L180.831 378.624C180.704 378.768 180.551 378.882 180.381 378.959C180.211 379.037 180.029 379.076 179.844 379.075C179.659 379.074 179.477 379.033 179.308 378.953C179.139 378.874 178.987 378.758 178.862 378.613V378.611Z" fill="white"/>
<path opacity="0.249" fill-rule="evenodd" clip-rule="evenodd" d="M170.578 350.051L179.292 339.477C179.421 339.318 179.58 339.191 179.76 339.105C179.939 339.019 180.134 338.975 180.33 338.978C180.527 338.98 180.721 339.029 180.898 339.12C181.075 339.211 181.232 339.342 181.357 339.504L189.549 349.919L193.606 340.131C193.927 339.358 194.75 339.02 195.445 339.377C196.14 339.733 196.443 340.649 196.123 341.422L192.025 351.31H202.487V354.392H190.747L181.426 376.881C181.588 377.592 181.272 378.351 180.651 378.663C180.368 378.804 180.048 378.836 179.746 378.753C179.444 378.671 179.177 378.479 178.992 378.211C178.829 378.065 178.697 377.883 178.605 377.677C178.514 377.471 178.466 377.247 178.464 377.019L169.298 354.392H157.679V351.31H168.049L164.037 341.409C163.722 340.633 164.034 339.721 164.731 339.371C165.429 339.021 166.25 339.366 166.564 340.143L170.578 350.051ZM186.96 351.31L180.289 342.83L173.302 351.31H186.96ZM172.338 354.392L179.929 373.129L187.696 354.392H172.338Z" fill="white"/>
</g>
</g>
</g>
</g>
<defs>
<clipPath id="clip0">
<rect width="1383" height="527" fill="white"/>
</clipPath>
</defs>
</svg>
